<?xml version="1.0" encoding="utf-8"?>
<!-- Generator: Adobe Illustrator 23.0.2, SVG Export Plug-In . SVG Version: 6.00 Build 0)  -->
<svg version="1.0" id="Layer_1" xmlns="http://www.w3.org/2000/svg" xmlns:xlink="http://www.w3.org/1999/xlink" x="0px" y="0px"
	 width="923.4px" height="99.1px" viewBox="0 0 923.4 99.1" style="enable-background:new 0 0 923.4 99.1;" xml:space="preserve">
<style type="text/css">
	.st0{fill:#636467;}
	.st1{fill:#1B3765;}
	.st2{fill:#005835;}
	.st3{fill:#8F1C2C;}
	.st4{fill:#E5B721;}
	.st5{fill:#FDEA92;}
	.st6{fill:#4E4D50;}
	.st7{fill:#231F20;}
	.st8{fill:#FFFFFF;}
</style>
<g>
	<path class="st0" d="M75.1,96.5l-0.4-0.1c-0.2-0.1-0.3-0.1-0.5-0.2c-0.6-0.3-1.4-0.7-2.5-1.2s-2.9-1.5-5.3-2.9
		c-2.5-1.4-4.9-3-7.1-4.6c-2.3-1.6-4.8-3.7-7.5-6.1c-2.7-2.5-5.1-5-7.1-7.6c-2-2.7-3.7-5.7-5.1-9.2c-1.4-3.5-2.1-7.1-2.1-10.6V9.8
		c0-1.6,0.6-3,1.8-4.2c1.1-1.1,2.6-1.8,4.2-1.8h66.3c1.6,0,3,0.6,4.2,1.8s1.8,2.6,1.8,4.2V54c0,3.6-0.7,7.1-2.1,10.6
		c-1.4,3.4-3.1,6.5-5.1,9.2c-2,2.6-4.4,5.2-7.1,7.6s-5.2,4.5-7.5,6.1s-4.7,3.1-7.1,4.6c-2.5,1.4-4.2,2.4-5.3,2.9
		c-1,0.5-1.8,0.9-2.5,1.2c-0.2,0.1-0.3,0.1-0.5,0.2l-0.4,0.1h-0.4C77.9,96.5,75.1,96.5,75.1,96.5z"/>
	<path class="st1" d="M75.5,29.2V5.9H43.4c-1,0-1.9,0.4-2.6,1.1c-0.7,0.7-1.1,1.6-1.1,2.6v19.6H75.5L75.5,29.2z"/>
	<path class="st2" d="M39.7,31.6V54c0,3.3,0.6,6.6,1.9,9.9c1.3,3.3,2.9,6.1,4.8,8.7c1.9,2.5,4.2,5,6.8,7.4s5.1,4.4,7.3,6
		s4.6,3.1,7,4.5s4.2,2.4,5.2,2.9s1.8,0.9,2.5,1.2c0.1,0.1,0.2,0.1,0.3,0.1V31.6H39.7z"/>
	<path class="st3" d="M113.7,29.2V9.6c0-1-0.4-1.9-1.1-2.6S111,5.9,110,5.9H77.9v23.3L113.7,29.2L113.7,29.2z"/>
	<path class="st1" d="M77.9,31.6v62.9c0.1,0,0.2-0.1,0.3-0.1c0.6-0.3,1.4-0.7,2.5-1.2c1-0.5,2.7-1.5,5.2-2.9c2.4-1.4,4.8-2.9,7-4.5
		s4.7-3.6,7.3-6c2.6-2.4,4.9-4.9,6.8-7.4s3.5-5.4,4.8-8.7s1.9-6.5,1.9-9.9V31.6H77.9z"/>
	<path class="st4" d="M109.4,28.6L109.4,28.6L109.4,28.6H78.5V10.2l0,0l0,0c0-2.9,1.8-4.3,1.8-4.3h-7.1c0,0,1.8,1.4,1.8,4.3l0,0
		v18.4H44l0,0l0,0c-2.9,0-4.3-1.8-4.3-1.8V34c0,0,1.4-1.8,4.3-1.8l0,0l0,0h30.9v58l0,0c0,1.7-0.2,2.9-0.9,3.6
		c0.5,0.2,0.9,0.4,1.2,0.6c0.1,0.1,0.2,0.1,0.3,0.1l0,0l0,0h2.3l0,0c0.1,0,0.2-0.1,0.3-0.1c0.3-0.2,0.8-0.3,1.2-0.6
		c-0.7-0.7-0.9-1.9-0.9-3.6l0,0v-58h30.9l0,0c2.9,0,4.3,1.8,4.3,1.8v-7.1C113.7,26.8,112.3,28.6,109.4,28.6"/>
	<path class="st5" d="M57.6,24.7L57.6,24.7c-0.6,0-1-0.4-1.4-0.6C56.1,24,56,23.9,56,23.9c-2-1-6-0.5-6-0.5c-0.1,0-0.3,0-0.4-0.1
		c-0.1-0.1-0.2-0.2-0.2-0.3V12.6c0-0.1,0.1-0.3,0.2-0.4c0.1-0.1,0.3-0.1,0.4-0.1c0.6,0.1,1.7,0.4,2,0.4c0.2,0,0.4,0.2,0.4,0.5
		c0,0.2-0.2,0.4-0.5,0.4s-1.1-0.2-1.6-0.3v9.2c1.2-0.1,4.3-0.3,6,0.6c0.2,0.1,0.3,0.2,0.5,0.3c0.2,0.2,0.5,0.4,0.8,0.4
		c0.2,0,0.6-0.3,0.8-0.5c0.2-0.1,0.3-0.3,0.5-0.3c1.8-0.9,4.8-0.7,6-0.6v-9.3l-1.6,0.4c-0.2,0.1-0.5-0.1-0.5-0.3
		c-0.1-0.2,0.1-0.5,0.3-0.5l2.1-0.5c0.1,0,0.3,0,0.4,0.1s0.2,0.2,0.2,0.4v10.4c0,0.1-0.1,0.3-0.2,0.3c-0.1,0.1-0.2,0.1-0.4,0.1
		c0,0-4-0.6-6,0.5c-0.1,0-0.2,0.1-0.3,0.2C58.7,24.4,58.2,24.7,57.6,24.7"/>
	<path class="st5" d="M57.3,22.5l-0.1-0.1c-1.4-0.8-3.7-0.9-4.9-0.9h-0.5v-9.8c0-0.8,0.4-1.2,1.2-1.2c1.3,0,3.8,1.6,4.6,2.3
		c0.8-0.6,3.4-2.2,4.7-2.2c0.7,0,1.1,0.4,1.1,1.1v9.8h-0.5c-1.2,0-3.4,0.1-4.9,1l-0.1,0.1l-0.3,0.1L57.3,22.5z M58.2,13.4v0.2v7.8
		c1.3-0.6,3-0.7,4.3-0.7v-8.9c0-0.2,0-0.2-0.2-0.2C61.2,11.5,58.9,12.9,58.2,13.4 M52.7,20.6c1.3,0,2.9,0.2,4.2,0.7v-8
		c-0.7-0.5-2.9-2-4-2c-0.2,0-0.3,0-0.3,0.3L52.7,20.6L52.7,20.6z"/>
	<path class="st5" d="M66.5,52.7l-2.8,2.7l0.8,0.2c-1.2,2-3.4,2.9-5.9,3v-10H61c0.2,0.2,0.5,0.3,0.8,0.3c0.6,0,1.1-0.5,1.1-1.1
		s-0.5-1.1-1.1-1.1c-0.3,0-0.6,0.1-0.8,0.3h-2.3v-1.2c1.1-0.4,1.9-1.5,1.9-2.8c0-1.7-1.4-3-3-3c-1.7,0-3,1.4-3,3
		c0,1.4,0.9,2.5,2.2,2.9V47h-2.6c-0.2-0.2-0.5-0.3-0.8-0.3c-0.6,0-1.1,0.5-1.1,1.1s0.5,1.1,1.1,1.1c0.3,0,0.6-0.1,0.8-0.3h2.6v10.1
		c-2.6-0.2-4.9-1.2-6.1-3.4l0.8-0.2L49,52.3L47.8,56l1-0.2c1.4,3.1,4.7,5.7,8.4,5.9l0.6,2.1l0.6-2.1c3.5-0.2,6.6-2.5,8.2-5.5l1,0.3
		L66.5,52.7z M57.6,44.6c-0.8,0-1.5-0.7-1.5-1.5c0-0.9,0.7-1.5,1.5-1.5c0.9,0,1.6,0.7,1.6,1.5C59.2,43.9,58.5,44.6,57.6,44.6"/>
	<path class="st6" d="M100.6,90.7c6.1,1.5,11.9,3.4,17.7,5.8c-0.6-2.5-0.9-3.8-1.7-6.3c2.3-1.3,3.5-2,5.9-3.2
		c-6.4-2.6-12.8-4.7-19.5-6.3C102.3,84,101.4,87.4,100.6,90.7"/>
	<polygon class="st7" points="113.7,89.2 100.6,90.7 103.1,80.4 117.3,79.9 	"/>
	<path class="st6" d="M52.8,90.8c-6.1,1.5-11.9,3.4-17.7,5.8c0.6-2.5,0.9-3.8,1.7-6.3c-2.3-1.3-3.5-2-5.9-3.2
		c6.4-2.6,12.8-4.7,19.5-6.3C51.2,84.1,52,87.5,52.8,90.8"/>
	<polygon class="st7" points="39.7,89.2 52.8,90.8 50.3,80.4 36.1,79.8 	"/>
	<path class="st0" d="M117.4,79.8c-13.4-7-26.9-10.5-40.6-10.4l0,0h-0.1c-0.1,0-0.2,0-0.3,0l0,0C63,69.6,49.6,73.1,36.1,79.8
		c1.2,3.1,2.4,6.2,3.6,9.3c15.1-6.2,26.1-9.3,36.9-9.4c11.1,0,22.1,3.1,37.1,9.4C114.9,86.1,116.1,83,117.4,79.8"/>
	<polygon class="st4" points="89.7,74.6 89.9,75.3 90.5,74.9 90.3,75.6 91,75.6 90.4,76 91,76.4 90.3,76.4 90.5,77.1 89.9,76.7 
		89.7,77.4 89.5,76.7 88.9,77.1 89.1,76.4 88.4,76.4 89,76 88.4,75.5 89.1,75.6 88.9,74.9 89.5,75.3 	"/>
	<polygon class="st4" points="61.2,74.6 61.4,75.3 62,74.9 61.7,75.6 62.5,75.6 61.9,76 62.4,76.4 61.7,76.4 61.9,77.1 61.4,76.7 
		61.1,77.4 60.9,76.7 60.3,77.1 60.6,76.4 59.8,76.4 60.4,76 59.8,75.5 60.6,75.6 60.4,74.9 60.9,75.3 	"/>
	<path class="st5" d="M99.1,10.2l-0.7,0.9c2.6,1.9,3.1,5.6,1.2,8.1c-0.9,1.2-2.3,2-3.8,2.3c-1.5,0.2-3.1-0.2-4.3-1.1l-0.7,0.9
		c1.2,0.9,2.7,1.4,4.2,1.4l0,0v0.9h-2v1.3h5.1v-1.3h-2v-1c1.8-0.3,3.3-1.2,4.4-2.7C102.8,16.9,102.1,12.5,99.1,10.2"/>
	<path class="st5" d="M91.6,14.3c0.4,0.5,0.6,1.7,1.3,1.9c0.4,0.1,0.4,0.1,0.3-0.2c0-0.2-0.1-0.4-0.1-0.6c0-0.5-0.5-1-0.4-1.6
		c0.2-0.6,0.7-0.9,0.6-1.6c-0.1-0.4-0.2-0.8-0.2-1.3c-0.9,0.3-1.7,0.9-2.3,1.7c-0.2,0.2-0.4,0.5-0.5,0.8
		C90.8,13.5,91.3,13.8,91.6,14.3"/>
	<path class="st5" d="M91.8,19.9c2.3,1.7,5.5,1.2,7.2-1c0.1-0.2,0.3-0.4,0.4-0.6c-0.6-0.3-1.1-0.7-1.6-1.1c-0.6-0.5-1.4-1.1-1.5-1.9
		c-0.1-0.9,0.6-1.3,1.4-1.2s0.7-0.4,1-0.9c0.1-0.2,0.2-0.3,0.4-0.4c-0.3-0.4-0.7-0.8-1.1-1.1c-1.2-0.9-2.7-1.2-4-0.9
		c0.1,0.7,0.3,1.5,0.3,2.2s-0.8,0.9-0.4,1.7c0.3,0.6,0.5,1.9-0.1,2.4c-0.7,0.5-1.8-0.4-2.2-1c-0.4-0.8-0.7-1.6-1.6-1.7
		C89.4,16.3,90,18.6,91.8,19.9"/>
	<path class="st5" d="M97.3,15.5c0.5,0.8,1.5,1.6,2.4,2c0.5-1.3,0.4-2.8-0.2-4c-0.4,0.4-0.3,1.1-0.9,1.3
		C98.3,15,96.8,14.8,97.3,15.5"/>
	<path class="st8" d="M42.5,83.2l0.8-0.4c0.4,0.6,0.8,0.8,1.3,0.6c0.3-0.1,0.4-0.3,0.5-0.4c0.1-0.2,0.1-0.4,0-0.6
		c0-0.1-0.1-0.2-0.2-0.3C44.8,82,44.7,82,44.6,82s-0.4,0-0.9,0c-0.4,0-0.7,0-1,0c-0.2-0.1-0.4-0.2-0.6-0.4c-0.2-0.2-0.3-0.4-0.4-0.6
		c-0.1-0.3-0.2-0.6-0.1-0.8c0-0.3,0.2-0.5,0.3-0.7c0.2-0.2,0.4-0.4,0.8-0.5c0.5-0.2,1-0.2,1.3-0.1c0.4,0.2,0.7,0.5,0.9,1l-0.8,0.4
		c-0.2-0.3-0.3-0.4-0.5-0.5s-0.4,0-0.6,0c-0.2,0.1-0.4,0.2-0.5,0.4c-0.1,0.1-0.1,0.3,0,0.4s0.2,0.2,0.3,0.3c0.1,0.1,0.5,0.1,0.9,0
		c0.5,0,0.8,0,1.1,0c0.2,0.1,0.5,0.2,0.7,0.4c0.2,0.2,0.3,0.4,0.5,0.7c0.2,0.4,0.2,0.9,0,1.3s-0.5,0.7-1.1,1
		C44,84.7,43.1,84.3,42.5,83.2"/>
	<polygon class="st8" points="47.4,83.2 45.5,77.9 48.8,76.8 49.1,77.7 46.7,78.5 47.1,79.7 49.3,78.9 49.6,79.8 47.4,80.6 47.9,82 
		50.4,81.2 50.7,82.1 	"/>
	<polygon class="st8" points="51.4,81.9 49.8,76.5 53,75.5 53.3,76.4 50.9,77.1 51.3,78.3 53.5,77.7 53.8,78.6 51.6,79.2 52,80.7 
		54.5,80 54.7,80.9 	"/>
	<polygon class="st8" points="55.4,80.7 54.1,75.2 55,75 55.6,77.4 56.8,74.6 58,74.3 56.8,76.8 59.4,79.7 58.3,80 56.4,77.7 
		55.9,78.8 56.3,80.5 	"/>
	<path class="st8" d="M64.6,76.8l0.9-0.2c0.2,0.7,0.6,1,1.2,0.9c0.3,0,0.5-0.2,0.6-0.3c0.1-0.2,0.2-0.4,0.2-0.6
		c0-0.1-0.1-0.2-0.1-0.3c-0.1-0.1-0.2-0.1-0.3-0.2c-0.1,0-0.4-0.1-0.9-0.2c-0.4-0.1-0.7-0.1-0.9-0.3c-0.2-0.1-0.4-0.3-0.5-0.5
		s-0.2-0.4-0.3-0.7c0-0.3,0-0.6,0.1-0.8c0.1-0.3,0.3-0.5,0.5-0.6c0.2-0.2,0.5-0.3,0.9-0.3c0.5-0.1,1,0,1.3,0.2s0.6,0.6,0.7,1.2
		l-0.9,0.2c-0.1-0.3-0.2-0.5-0.4-0.6c-0.2-0.1-0.4-0.1-0.6-0.1s-0.4,0.1-0.5,0.2s-0.2,0.3-0.1,0.4c0,0.2,0.1,0.3,0.2,0.4
		s0.4,0.2,0.9,0.2c0.5,0.1,0.8,0.2,1.1,0.3c0.2,0.1,0.4,0.3,0.6,0.5c0.1,0.2,0.2,0.5,0.3,0.8c0.1,0.5,0,0.9-0.3,1.3
		c-0.2,0.4-0.7,0.6-1.3,0.7C65.6,78.6,64.9,78,64.6,76.8"/>
	<polygon class="st8" points="69.2,77.9 68.6,72.4 69.6,72.3 69.8,74.5 71.6,74.3 71.4,72.1 72.3,72 72.9,77.5 72,77.6 71.7,75.2 
		69.9,75.4 70.2,77.8 	"/>
	<path class="st8" d="M77.9,77.4h-1l-0.4-1.3h-1.8l-0.4,1.3h-1l1.7-5.6h1L77.9,77.4z M76.1,75.2l-0.7-2.1l-0.6,2.1H76.1z"/>
	<path class="st8" d="M78.3,77.4l0.3-5.6l2,0.1c0.5,0,0.8,0.1,1.1,0.2c0.2,0.1,0.4,0.3,0.5,0.5c0.1,0.3,0.2,0.6,0.2,0.9
		c0,0.4-0.1,0.8-0.4,1c-0.2,0.3-0.5,0.4-0.9,0.5c0.2,0.2,0.3,0.3,0.5,0.5c0.1,0.2,0.3,0.5,0.5,0.9l0.5,1.1l-1.1-0.1l-0.6-1.3
		c-0.2-0.4-0.4-0.7-0.5-0.8c-0.1-0.1-0.2-0.2-0.3-0.2c-0.1,0-0.2-0.1-0.5-0.1h-0.2l-0.1,2.3L78.3,77.4z M79.4,74.3h0.7
		c0.4,0,0.7,0,0.8,0c0.1,0,0.2-0.1,0.3-0.2c0.1-0.1,0.1-0.3,0.1-0.4c0-0.2,0-0.3-0.1-0.4C81.1,73.1,81,73,80.9,73s-0.3-0.1-0.8-0.1
		h-0.7V74.3z"/>
	<polygon class="st8" points="82.8,77.7 83.4,72.1 86.8,72.5 86.7,73.4 84.2,73.2 84.1,74.4 86.4,74.7 86.3,75.6 84,75.3 83.8,76.9 
		86.4,77.1 86.3,78.1 	"/>
	<path class="st8" d="M92.4,77.3l0.9,0.1c-0.1,0.7,0.2,1.1,0.7,1.3c0.3,0.1,0.5,0.1,0.7-0.1c0.2-0.1,0.3-0.3,0.4-0.5
		c0-0.1,0-0.2,0-0.3c0-0.1-0.1-0.2-0.2-0.3c-0.1-0.1-0.3-0.2-0.7-0.5c-0.4-0.2-0.6-0.4-0.7-0.6s-0.2-0.4-0.3-0.6c0-0.2,0-0.5,0-0.8
		c0.1-0.3,0.2-0.5,0.4-0.7c0.2-0.2,0.4-0.3,0.7-0.4c0.3-0.1,0.6,0,0.9,0c0.5,0.1,0.9,0.4,1.1,0.7c0.2,0.4,0.3,0.8,0.2,1.3l-0.9-0.2
		c0-0.3,0-0.5-0.1-0.7c-0.1-0.1-0.3-0.3-0.5-0.3c-0.2-0.1-0.4-0.1-0.6,0C94.1,75,94,75.1,94,75.2s0,0.3,0.1,0.4s0.3,0.3,0.7,0.5
		c0.4,0.2,0.7,0.5,0.9,0.7c0.2,0.2,0.3,0.4,0.3,0.7c0,0.3,0,0.5-0.1,0.9c-0.1,0.5-0.4,0.8-0.7,1.1c-0.4,0.2-0.9,0.3-1.5,0.1
		C92.6,79.3,92.2,78.6,92.4,77.3"/>
	<polygon class="st8" points="96.3,80.2 97.8,74.9 101.1,75.8 100.9,76.7 98.5,76 98.1,77.2 100.4,77.8 100.1,78.7 97.9,78.1 
		97.5,79.6 99.9,80.3 99.7,81.2 	"/>
	<path class="st8" d="M100.4,81.4l1.7-5.3l1.9,0.6c0.5,0.1,0.8,0.3,1,0.5s0.3,0.4,0.3,0.7c0.1,0.3,0,0.6-0.1,0.9
		c-0.1,0.4-0.3,0.7-0.6,0.9c-0.3,0.2-0.6,0.3-1,0.2c0.1,0.2,0.3,0.4,0.3,0.6c0.1,0.2,0.2,0.5,0.2,1l0.2,1.2l-1.1-0.3L103,81
		c-0.1-0.5-0.2-0.8-0.2-0.9s-0.1-0.2-0.2-0.3c-0.1-0.1-0.2-0.1-0.4-0.2l-0.2-0.1l-0.7,2.2L100.4,81.4z M102.3,78.6l0.7,0.2
		c0.4,0.1,0.7,0.2,0.8,0.2s0.2,0,0.3-0.1c0.1-0.1,0.2-0.2,0.2-0.4c0.1-0.2,0.1-0.3,0-0.4c0-0.1-0.1-0.2-0.2-0.3
		c-0.1-0.1-0.3-0.1-0.7-0.3l-0.7-0.2L102.3,78.6z"/>
	<polygon class="st8" points="105.7,83.2 106.1,77.3 107,77.7 106.7,82 109.2,78.4 110.1,78.8 106.7,83.5 	"/>
	<polygon class="st8" points="108.6,84.2 110.8,79 113.9,80.3 113.6,81.2 111.3,80.3 110.8,81.4 112.9,82.3 112.6,83.2 110.4,82.3 
		109.8,83.7 112.2,84.7 111.8,85.6 	"/>
	<path class="st5" d="M98.9,44.2c0.1,0.6,1,2.8-1.1,2s-2-6.1-1.1-7.6c-1.3,0.5-2.2,3.9-2.2,3.9l0,0c0-0.1,0-0.1-0.1-0.2
		c-0.1-0.2-0.2-0.4-0.3-0.6c-0.1-0.2-0.3-0.3-0.4-0.4c-0.1-0.1-0.2-0.1-0.3-0.1h-0.1l0,0l0,0c0,0,0,0,0.1,0s0.1,0.1,0.2,0.2
		c0.1,0.2,0.3,0.5,0.3,0.9c0,0.2,0,0.4,0,0.7c0,0.2-0.1,0.5-0.1,0.7c-0.1,0.2-0.1,0.5-0.3,0.7c0,0.1-0.1,0.2-0.2,0.4L93.2,45
		l-0.1,0.1c0,0,0-0.1,0-0.2c0-0.3,0.1-0.5,0.1-0.8c0-0.2-0.1-0.5-0.1-0.6c-0.1-0.2-0.2-0.3-0.3-0.4c-0.1-0.1-0.2-0.2-0.2-0.2
		c-0.1,0-0.1,0-0.1,0s0,0,0.1,0.1c0,0.1,0.1,0.2,0.1,0.3s0,0.3,0,0.4c0,0.2,0,0.3-0.1,0.5c-0.1,0.4-0.3,0.8-0.5,1.3
		c-0.1,0.2-0.2,0.5-0.3,0.7c-0.1,0.3-0.2,0.5-0.4,0.8c0,0.1-0.1,0.3-0.2,0.5c0,0.2-0.1,0.3-0.1,0.5s0,0.3,0,0.5s0.1,0.3,0.1,0.5
		c0.2,0.6,0.6,1,1,1.3c0.2,0.1,0.4,0.3,0.6,0.3c0.2,0.1,0.3,0.1,0.5,0.1c0.1,0,0.2,0,0.3,0c0.1,0,0.1,0,0.1,0s0,0-0.1,0h-0.1
		c0,0-0.1,0-0.1-0.1c-0.2-0.1-0.5-0.3-0.7-0.6s-0.4-0.7-0.5-1.1c0-0.2-0.1-0.4,0-0.7c0-0.1,0-0.2,0.1-0.3c0-0.1,0-0.1,0.1-0.2
		c0,0,0-0.1,0.1-0.2c0,0,0,0.1,0,0.2c0,0.2,0,0.3,0.1,0.5c0.1,0.3,0.2,0.6,0.3,0.8c0.1,0.1,0.2,0.2,0.3,0.3l0.1,0.1l0.1,0.1
		c0.1,0.1,0.2,0.1,0.2,0.1c0.1,0,0.2,0.1,0.2,0.1c0.1,0,0.2,0.1,0.3,0.1c0.1,0,0.1,0,0.1,0s0,0-0.1-0.1L94,49.6l-0.1-0.1l-0.1-0.1
		c0-0.1-0.1-0.1-0.1-0.2c0,0,0-0.1-0.1-0.1c0,0,0-0.1-0.1-0.1c0-0.1-0.1-0.2-0.1-0.3c-0.1-0.2-0.1-0.4-0.1-0.6c0-0.1,0-0.2,0-0.3
		s0-0.1,0-0.2v-0.2c0-0.1,0-0.1,0.1-0.2c0-0.1,0-0.1,0.1-0.2c0-0.1,0.1-0.2,0.2-0.4c0.1-0.1,0.1-0.2,0.2-0.4l0,0
		c-0.1,0.7,0,1.9,1.5,2.4c-1.6-3.1-0.1-5.4-0.1-5.4s0.4,5.2,4.1,4.4c0.3,2.2-2.3,3.1-2.3,3.1s3.4,0,3.5-2.7
		C100.5,46,99.5,44.8,98.9,44.2"/>
	<polygon class="st5" points="93.7,62.5 97.6,62.5 99.4,51.5 91.6,51.5 	"/>
</g>
<g>
	<path class="st8" d="M172.5,41.3h-5.2l-3.7-10.4H150l-3.8,10.4h-4.3l14-34.9h3.2L172.5,41.3z M162.4,27.5l-5.4-15l-5.7,14.9h11.1
		L162.4,27.5L162.4,27.5z"/>
	<path class="st8" d="M196.5,41.3h-19.6V6.4h5v31.4h14.6V41.3L196.5,41.3z"/>
	<path class="st8" d="M222.1,14.8c0.1,0.5,0.1,1,0.1,1.6c0,3.1-1.2,5.7-3.7,8c-2.4,2.2-5.4,3.3-8.8,3.3h-0.9v-3.2h0.8
		c2.1,0,3.9-0.6,5.2-1.9c1.5-1.4,2.2-3.4,2.2-6c0-2.3-0.7-4.1-2-5.2c-1.2-1-2.8-1.4-4.8-1.4h-3.7v31.4h-5v-35h10
		c2.8,0,5.1,0.6,6.9,1.9C220.5,9.7,221.7,11.9,222.1,14.8z"/>
	<path class="st8" d="M253.2,41.3h-5V23.9h-16.7v17.5h-5.1v-35h5.1v14h16.7v-14h5V41.3z"/>
	<path class="st8" d="M287.6,41.3h-5.2l-3.7-10.4H265l-3.8,10.4h-4.3l14-34.9h3.2L287.6,41.3z M277.4,27.5l-5.4-15l-5.7,14.9h11.1
		V27.5z"/>
	<path class="st8" d="M333.7,9.4l-2.1,2.9l-2.2-1.2c-0.9-0.5-2-0.9-3.4-1.2c-1.3-0.3-2.8-0.4-4.6-0.4c-3.7,0-6.7,1.5-9.1,4.5
		c-2.3,2.9-3.4,6.4-3.4,10.5c0,3.7,1.2,7,3.6,9.7c2.5,2.8,5.5,4.3,9.1,4.3c1.7,0,3.3-0.1,4.6-0.4c1.4-0.3,2.5-0.7,3.5-1.2l1.7-0.9
		l1.9,2.9l-1.6,0.8c-1.9,0.9-3.6,1.6-5.2,1.9s-3.5,0.5-5.8,0.5c-4.9,0-8.9-1.7-12.2-5.1c-3.2-3.4-4.9-7.6-4.9-12.5
		c0-5.1,1.8-9.4,5.3-13s7.8-5.3,12.7-5.3c2.1,0,3.9,0.2,5.5,0.5s3,0.9,4.6,1.8L333.7,9.4z"/>
	<path class="st8" d="M373.6,23.7c0,5.1-1.6,9.4-4.8,12.8c-3.3,3.6-7.6,5.3-12.8,5.3c-5,0-9.1-1.8-12.5-5.3c-3.3-3.5-5-7.8-5-12.9
		c0-4.8,1.7-9,5-12.6s7.3-5.3,12-5.3c5.5,0,9.9,1.7,13.2,5.2C372,14.3,373.6,18.6,373.6,23.7z M368.1,23.7c0-4.1-0.9-7.4-2.8-9.9
		c-2.2-3-5.4-4.5-9.6-4.5c-3.6,0-6.5,1.5-8.7,4.4c-2,2.7-3,6-3,9.9c0,4.2,1.1,7.7,3.3,10.5c2.2,2.8,5.1,4.2,8.7,4.2s6.6-1.3,8.8-4
		C367,31.7,368.1,28.2,368.1,23.7z"/>
	<path class="st8" d="M398.9,41.3h-19.6V6.4h5v31.4h14.6V41.3L398.9,41.3z"/>
	<path class="st8" d="M423.4,41.3h-19.6V6.4h5v31.4h14.6V41.3L423.4,41.3z"/>
	<path class="st8" d="M447.6,41.3h-19.5V6.4h17.3v3.5H433v11.4h12.2v3.5H433v13h14.7L447.6,41.3L447.6,41.3z"/>
	<path class="st8" d="M483.2,39.4l-2.4,0.8c-1.6,0.6-3.6,1-6,1.3c-1.8,0.2-3.6,0.3-5.4,0.3c-4.8,0-8.8-1.7-12.1-5s-4.9-7.5-4.9-12.5
		c0-5.1,1.7-9.5,5.1-13c3.4-3.6,7.7-5.3,12.9-5.3c2.3,0,4.3,0.1,5.9,0.4c1.7,0.3,3.3,0.8,4.7,1.7l1.9,1l-2,2.9l-2.1-1.2
		c-0.7-0.4-1.7-0.7-3-1s-2.7-0.4-4.1-0.4c-0.6,0-1.1,0-1.7,0.1c-3.9,0.5-6.9,2.1-9.1,4.8s-3.3,6.1-3.3,10.3c0,3.8,1.2,7.1,3.6,9.8
		s5.4,4.1,9,4.1c3.1,0,5.5-0.3,7-0.8l1.1-0.4v-12h4.9V39.4L483.2,39.4z"/>
	<path class="st8" d="M507.9,41.3h-19.5V6.4h17.3v3.5h-12.5v11.4h12.2v3.5h-12.2v13h14.7V41.3L507.9,41.3z"/>
	<path class="st8" d="M559.8,23.7c0,5.1-1.6,9.4-4.8,12.8c-3.3,3.6-7.6,5.3-12.8,5.3c-5,0-9.1-1.8-12.5-5.3c-3.3-3.5-5-7.8-5-12.9
		c0-4.8,1.7-9,5-12.6s7.3-5.3,12-5.3c5.5,0,9.9,1.7,13.3,5.2C558.1,14.3,559.8,18.6,559.8,23.7z M554.3,23.7c0-4.1-0.9-7.4-2.8-9.9
		c-2.2-3-5.4-4.5-9.6-4.5c-3.6,0-6.5,1.5-8.7,4.4c-2,2.7-3,6-3,9.9c0,4.2,1.1,7.7,3.3,10.5s5.2,4.2,8.8,4.2s6.6-1.3,8.8-4
		C553.2,31.7,554.3,28.2,554.3,23.7z"/>
	<path class="st8" d="M582.7,9.9h-12.3v12h12.1v3.5h-12.1v15.9h-4.8V6.4h17.1V9.9z"/>
	<path class="st8" d="M619.3,41.3h-19.5V6.4h17.3v3.5h-12.5v11.4h12.2v3.5h-12.2v13h14.7V41.3z"/>
	<path class="st8" d="M651.8,41.5h-3.3l-20.6-27.1v27h-4.1v-35h3.1l20.9,27.5V6.4h3.9L651.8,41.5L651.8,41.5z"/>
	<path class="st8" d="M687.6,39.4l-2.4,0.8c-1.6,0.6-3.6,1-6,1.3c-1.8,0.2-3.6,0.3-5.4,0.3c-4.8,0-8.8-1.7-12.1-5s-4.9-7.5-4.9-12.5
		c0-5.1,1.7-9.5,5.1-13c3.4-3.6,7.7-5.3,12.9-5.3c2.3,0,4.3,0.1,5.9,0.4c1.7,0.3,3.3,0.8,4.7,1.7l1.9,1l-2,2.9l-2.1-1.2
		c-0.7-0.4-1.7-0.7-3-1s-2.7-0.4-4.1-0.4c-0.6,0-1.1,0-1.7,0.1c-3.9,0.5-6.9,2.1-9.1,4.8c-2.2,2.7-3.3,6.1-3.3,10.3
		c0,3.8,1.2,7.1,3.6,9.8c2.4,2.7,5.4,4.1,9,4.1c3.1,0,5.5-0.3,7-0.8l1.1-0.4v-12h4.9L687.6,39.4L687.6,39.4z"/>
	<path class="st8" d="M698.8,41.3h-5V6.4h5V41.3z"/>
	<path class="st8" d="M732.8,41.5h-3.3l-20.6-27.1v27h-4.1v-35h3.1l20.9,27.5V6.4h3.9L732.8,41.5L732.8,41.5z"/>
	<path class="st8" d="M757.5,41.3H738V6.4h17.3v3.5h-12.5v11.4H755v3.5h-12.2v13h14.7V41.3L757.5,41.3z"/>
	<path class="st8" d="M781.8,41.3h-19.5V6.4h17.3v3.5h-12.5v11.4h12.2v3.5h-12.2v13h14.7V41.3z"/>
	<path class="st8" d="M810.1,40.4l-4.8,1.5l-8.2-15.1h-5.2v14.5h-4.8V6.4h10.6c2.6,0,4.7,0.7,6.4,2.1c1.6,1.3,2.6,2.9,2.9,5
		c0.1,0.7,0.2,1.4,0.2,2.1c0,1.8-0.4,3.5-1.2,5s-1.9,2.9-3.5,4.1l-1.2,0.9L810.1,40.4z M802.1,15.5c0-1.9-0.5-3.3-1.7-4.3
		c-1.1-1-2.7-1.4-4.7-1.4h-3.8v13.6h3.3c2,0,3.6-0.7,4.9-2.1C801.4,19.9,802.1,17.9,802.1,15.5z"/>
	<path class="st8" d="M820.4,41.3h-5V6.4h5V41.3z"/>
	<path class="st8" d="M854.3,41.5H851l-20.6-27.1v27h-4.1v-35h3.1l20.9,27.5V6.4h3.9L854.3,41.5L854.3,41.5z"/>
	<path class="st8" d="M890.2,39.4l-2.4,0.8c-1.6,0.6-3.6,1-6,1.3c-1.8,0.2-3.6,0.3-5.4,0.3c-4.8,0-8.8-1.7-12.1-5s-4.9-7.5-4.9-12.5
		c0-5.1,1.7-9.5,5.1-13c3.4-3.6,7.7-5.3,12.9-5.3c2.3,0,4.3,0.1,5.9,0.4c1.7,0.3,3.3,0.8,4.7,1.7l1.9,1l-2,2.9l-2.1-1.2
		c-0.7-0.4-1.7-0.7-3-1s-2.7-0.4-4.1-0.4c-0.6,0-1.1,0-1.7,0.1c-3.9,0.5-6.9,2.1-9.1,4.8c-2.2,2.7-3.3,6.1-3.3,10.3
		c0,3.8,1.2,7.1,3.6,9.8c2.4,2.7,5.4,4.1,9,4.1c3.1,0,5.5-0.3,7-0.8l1.1-0.4v-12h4.9L890.2,39.4L890.2,39.4z"/>
</g>
<g>
	<rect x="140.6" y="56.8" class="st8" width="212.7" height="1.9"/>
	<rect x="677.3" y="56.8" class="st8" width="217" height="1.9"/>
	<g>
		<g>
			<path class="st8" d="M365.3,66.6V52.3h-5.1v-2.9h13.7v2.9h-5.1v14.3H365.3z"/>
			<path class="st8" d="M376.2,66.6V49.3h3.5v6.8h6.8v-6.8h3.5v17.3h-3.5v-7.5h-6.8v7.6L376.2,66.6L376.2,66.6z"/>
			<path class="st8" d="M393.5,66.6V49.3h3.5v17.3H393.5L393.5,66.6z"/>
			<path class="st8" d="M400.3,66.6V49.3h7.3c1.8,0,3.2,0.2,4,0.5s1.5,0.9,2,1.7c0.5,0.8,0.8,1.7,0.8,2.7c0,1.3-0.4,2.4-1.1,3.2
				c-0.8,0.8-1.9,1.4-3.4,1.6c0.8,0.4,1.4,0.9,1.9,1.4s1.2,1.5,2,2.8l2.1,3.4h-4.2l-2.5-3.8c-0.9-1.3-1.5-2.2-1.8-2.5
				s-0.7-0.6-1-0.7c-0.4-0.1-1-0.2-1.8-0.2h-0.7v7.2C403.9,66.6,400.3,66.6,400.3,66.6z M403.8,56.7h2.6c1.7,0,2.7-0.1,3.1-0.2
				s0.7-0.4,1-0.7c0.2-0.3,0.4-0.8,0.4-1.3c0-0.6-0.2-1.1-0.5-1.4c-0.3-0.4-0.7-0.6-1.3-0.7c-0.3,0-1.1-0.1-2.5-0.1h-2.7L403.8,56.7
				L403.8,56.7z"/>
			<path class="st8" d="M417.7,49.3h3.5v9.4c0,1.5,0,2.4,0.1,2.9c0.1,0.7,0.5,1.3,1.1,1.7c0.6,0.4,1.3,0.6,2.3,0.6s1.7-0.2,2.2-0.6
				s0.8-0.9,0.9-1.5s0.2-1.6,0.2-2.9v-9.6h3.5v9.1c0,2.1-0.1,3.5-0.3,4.4c-0.2,0.9-0.5,1.6-1,2.2s-1.2,1.1-2,1.4s-2,0.5-3.3,0.5
				c-1.7,0-2.9-0.2-3.8-0.6s-1.5-0.9-2-1.5s-0.8-1.2-1-1.9c-0.2-1-0.3-2.5-0.3-4.4L417.7,49.3L417.7,49.3z"/>
			<path class="st8" d="M435.1,66.6V49.3h5.2l3.1,11.8l3.1-11.8h5.2v17.3h-3.2V53l-3.4,13.6h-3.4L438.3,53v13.6H435.1z"/>
			<path class="st8" d="M470.8,66.6H467l-1.5-3.9h-6.9l-1.4,3.9h-3.7l6.7-17.3h3.7L470.8,66.6z M464.4,59.8l-2.4-6.4l-2.3,6.4H464.4
				z"/>
			<path class="st8" d="M471.2,66.6v-3.1l9.1-11.2h-8v-2.9h12.6v2.7l-9.5,11.7h9.8v2.9L471.2,66.6L471.2,66.6z"/>
			<path class="st8" d="M487.4,66.6V49.3h3.5v6.8h6.8v-6.8h3.5v17.3h-3.5v-7.5h-6.8v7.6L487.4,66.6L487.4,66.6z"/>
			<path class="st8" d="M504.7,66.6V49.3h3.5v17.3H504.7L504.7,66.6z"/>
			<path class="st8" d="M510.6,61l3.4-0.3c0.2,1.1,0.6,2,1.2,2.5c0.6,0.5,1.5,0.8,2.5,0.8c1.1,0,2-0.2,2.5-0.7
				c0.6-0.5,0.9-1,0.9-1.7c0-0.4-0.1-0.8-0.4-1c-0.2-0.3-0.7-0.5-1.3-0.8c-0.4-0.1-1.3-0.4-2.8-0.8c-1.9-0.5-3.2-1-3.9-1.7
				c-1.1-1-1.6-2.1-1.6-3.5c0-0.9,0.2-1.7,0.7-2.5c0.5-0.8,1.2-1.4,2.2-1.8c0.9-0.4,2.1-0.6,3.4-0.6c2.2,0,3.8,0.5,4.9,1.4
				c1.1,1,1.7,2.2,1.7,3.8l-3.5,0.2c-0.2-0.9-0.5-1.5-1-1.9s-1.2-0.6-2.2-0.6s-1.8,0.2-2.4,0.6c-0.4,0.3-0.6,0.6-0.6,1.1
				c0,0.4,0.2,0.8,0.5,1.1c0.4,0.4,1.5,0.8,3.2,1.2c1.7,0.4,3,0.8,3.8,1.2c0.8,0.4,1.4,1,1.9,1.8c0.5,0.7,0.7,1.7,0.7,2.8
				c0,1-0.3,1.9-0.8,2.8c-0.5,0.9-1.3,1.5-2.3,1.9s-2.3,0.6-3.8,0.6c-2.2,0-3.9-0.5-5-1.5C511.6,64.4,510.9,62.9,510.6,61z"/>
			<path class="st8" d="M543.2,66.6h-3.8l-1.5-3.9H531l-1.4,3.9h-3.7l6.7-17.3h3.7L543.2,66.6z M536.8,59.8l-2.4-6.4l-2.3,6.4H536.8
				z"/>
			<path class="st8" d="M544.9,66.6V49.3h3.5v17.3H544.9L544.9,66.6z"/>
		</g>
		<g>
			<path class="st8" d="M553.8,62.8h3.7v3.6c0,2.2-1.6,3.6-3.7,3.9v-1.7c1-0.2,1.7-1.2,1.7-2.2h-1.7V62.8z"/>
			<path class="st8" d="M578.3,55.2c-0.2-1.7-1.8-2.9-3.7-2.9c-3.3,0-4.6,2.8-4.6,5.8c0,2.8,1.2,5.6,4.6,5.6c2.3,0,3.5-1.6,3.8-3.8
				h3.6c-0.4,4.2-3.3,6.9-7.4,6.9c-5.2,0-8.3-3.9-8.3-8.7c0-5,3.1-8.9,8.3-8.9c3.7,0,6.8,2.2,7.3,6.1L578.3,55.2L578.3,55.2z"/>
			<path class="st8" d="M584.5,49.6h3.7v6.5h6.8v-6.5h3.7v16.8H595v-7.3h-6.8v7.3h-3.7V49.6z"/>
			<path class="st8" d="M602,49.6h12.6v3.1h-8.9v3.6h8.2v2.9h-8.2v4.1h9.1v3.1H602V49.6z"/>
			<path class="st8" d="M617.2,49.6h3.7l7,11.3l0,0V49.6h3.5v16.8h-3.7l-7-11.3l0,0v11.3h-3.5V49.6z"/>
			<path class="st8" d="M634.7,49.6h3.7l7,11.3l0,0V49.6h3.5v16.8h-3.7l-7-11.3l0,0v11.3h-3.5V49.6z"/>
			<path class="st8" d="M656.7,49.6h3.8l6.3,16.8H663l-1.3-3.7h-6.3l-1.3,3.7h-3.7L656.7,49.6z M656.4,59.9h4.4l-2.1-6.2l0,0
				L656.4,59.9z"/>
			<path class="st8" d="M668.3,49.6h3.7v16.8h-3.7V49.6z"/>
		</g>
	</g>
</g>
<g>
	<path class="st8" d="M290.7,76.1c-1.8,3.2-2.5,6-2.5,9.7c0,3.7,0.7,6.4,2.5,9.7h-2.3c-2.1-3.4-3.1-6.7-3.1-9.7c0-3,0.9-6.3,3.1-9.7
		H290.7z"/>
	<path class="st8" d="M294.8,76.1h3.9l4.1,15.4h-3.3l-0.7-3.2h-4.2l-0.7,3.2h-3.3L294.8,76.1z M295.2,85.7h3.1l-1.5-6.9h-0.1
		L295.2,85.7z"/>
	<path class="st8" d="M303.8,79.9h2.9v1.2h0c0.7-1.1,1.5-1.5,2.7-1.5c2.5,0,3.6,1.8,3.6,6.1c0,4.3-1.1,6.1-3.6,6.1
		c-1.1,0-1.9-0.4-2.5-1.4h0v4.9h-3V79.9z M308.5,89.5c1.3,0,1.6-1.3,1.6-3.8c0-2.5-0.3-3.8-1.6-3.8c-1.3,0-1.6,1.3-1.6,3.8
		C306.9,88.2,307.1,89.5,308.5,89.5z"/>
	<path class="st8" d="M314.8,79.9h2.9v1.2h0c0.6-1.1,1.5-1.5,2.7-1.5c2.5,0,3.6,1.8,3.6,6.1c0,4.3-1.1,6.1-3.6,6.1
		c-1.1,0-1.9-0.4-2.5-1.4h0v4.9h-3V79.9z M319.4,89.5c1.3,0,1.6-1.3,1.6-3.8c0-2.5-0.3-3.8-1.6-3.8c-1.3,0-1.6,1.3-1.6,3.8
		C317.8,88.2,318.1,89.5,319.4,89.5z"/>
	<path class="st8" d="M325.8,79.9h2.9v1.6h0c0.6-1.1,1.5-1.9,2.7-1.9c0.2,0,0.4,0,0.6,0v2.9c-0.3,0-0.6,0-1,0c-1,0-2.2,0.5-2.2,2.1
		v7h-3V79.9z"/>
	<path class="st8" d="M337.3,79.5c3.7-0.1,4.6,2.1,4.6,6.1c0,4-1.2,6.1-4.6,6.1c-3.6,0.1-4.7-2.1-4.7-6.1
		C332.7,81.7,333.9,79.5,337.3,79.5z M337.3,89.7c1.2,0,1.6-1.2,1.6-4.1c0-2.9-0.4-4.1-1.6-4.1c-1.5,0-1.6,1.7-1.6,4.1
		C335.7,88,335.8,89.7,337.3,89.7z"/>
	<path class="st8" d="M349.4,79.9h3l-3,11.6h-3.5l-3.1-11.6h3.2l1.7,8.3h0.1L349.4,79.9z"/>
	<path class="st8" d="M356.1,86.1V87c0,1.4,0.4,2.7,1.5,2.7c1,0,1.4-0.8,1.6-2.2h2.7c-0.1,2.7-1.4,4.2-4.3,4.2
		c-4.4,0-4.6-3.3-4.6-6.2c0-3.1,0.6-6,4.7-6c3.5,0,4.3,2.3,4.3,5.9v0.7H356.1z M359.2,84.3c-0.1-1.8-0.3-2.8-1.5-2.8
		c-1.2,0-1.6,1.2-1.6,2.3v0.5H359.2z"/>
	<path class="st8" d="M369.7,90.2L369.7,90.2c-0.7,1.1-1.5,1.5-2.7,1.5c-2.5,0-3.6-1.8-3.6-6.1c0-4.3,1.1-6.1,3.6-6.1
		c1.1,0,1.9,0.5,2.6,1.4h0v-4.9h3v15.4h-2.9V90.2z M368,89.5c1.3,0,1.6-1.3,1.6-3.8c0-2.5-0.3-3.8-1.6-3.8c-1.3,0-1.6,1.3-1.6,3.8
		C366.4,88.2,366.7,89.5,368,89.5z"/>
	<path class="st8" d="M379.9,76.1h3v4.9h0c0.7-0.9,1.4-1.4,2.6-1.4c2.5,0,3.6,1.8,3.6,6.1c0,4.3-1.1,6.1-3.6,6.1
		c-1.2,0-2-0.4-2.7-1.5h0v1.2h-2.9V76.1z M384.5,89.5c1.3,0,1.6-1.3,1.6-3.8c0-2.5-0.3-3.8-1.6-3.8s-1.6,1.3-1.6,3.8
		C382.9,88.2,383.2,89.5,384.5,89.5z"/>
	<path class="st8" d="M390.9,93c0.3,0,0.5,0.1,0.8,0.1c1.1,0,1.5-0.6,1.6-1.6L390,79.9h3.2l1.8,8h0l1.5-8h3l-2.9,10.8
		c-1,4-1.7,4.6-4.5,4.6h-1.2V93z"/>
	<path class="st8" d="M409,76.1h3.9l4.1,15.4h-3.3l-0.7-3.2h-4.2l-0.7,3.2h-3.3L409,76.1z M409.4,85.7h3.1l-1.5-6.9h0L409.4,85.7z"
		/>
	<path class="st8" d="M418.3,91.5V76.1h3.2v15.4H418.3z"/>
	<path class="st8" d="M430.5,81.3c0-2.3-0.5-3.2-1.9-3.2c-1.6,0-2,1.6-2,5.9c0,4.7,0.6,5.5,2,5.5c1.1,0,2-0.6,2-3.9h3.2
		c0,3.3-0.8,6.2-5,6.2c-4.8,0-5.3-3.3-5.3-8c0-4.7,0.6-8,5.3-8c4.5,0,4.8,3.2,4.8,5.5H430.5z"/>
	<path class="st8" d="M444.7,76.1v2.5h-3.4v12.9h-3.2V78.6h-3.4v-2.5H444.7z"/>
	<path class="st8" d="M454.8,76.1v2.5h-5.6v3.6h5.3v2.6h-5.3v4.2h5.8v2.5h-9V76.1H454.8z"/>
	<path class="st8" d="M461.8,83.4v-0.3c0-2.7,1.8-3.6,4.1-3.6c3.6,0,4.3,1.5,4.3,3.6v6.1c0,1.1,0.1,1.6,0.4,2.2h-2.9
		c-0.2-0.4-0.3-0.8-0.4-1.2h0c-0.7,1.2-1.6,1.5-3,1.5c-2.1,0-2.8-1.8-2.8-3.3c0-2.2,0.9-3.1,3-3.6l1.7-0.5c0.9-0.2,1.2-0.6,1.2-1.4
		c0-0.9-0.4-1.4-1.4-1.4c-0.9,0-1.4,0.6-1.4,1.5v0.3H461.8z M467.3,85.7c-0.4,0.3-0.9,0.5-1.3,0.6c-1.2,0.3-1.7,0.8-1.7,1.9
		c0,0.9,0.3,1.6,1.2,1.6c0.8,0,1.9-0.5,1.9-1.8V85.7z"/>
	<path class="st8" d="M472.4,79.9h2.9v1.4h0c0.6-1.1,1.7-1.7,3-1.7c1.9,0,3,1,3,3.3v8.6h-3v-8c0-1.2-0.4-1.6-1.3-1.6
		c-1,0-1.6,0.6-1.6,1.9v7.7h-3V79.9z"/>
	<path class="st8" d="M489.3,90.2L489.3,90.2c-0.7,1.1-1.5,1.5-2.7,1.5c-2.5,0-3.6-1.8-3.6-6.1c0-4.3,1.1-6.1,3.6-6.1
		c1.1,0,1.9,0.5,2.5,1.4h0v-4.9h3v15.4h-2.9V90.2z M487.6,89.5c1.3,0,1.6-1.3,1.6-3.8c0-2.5-0.3-3.8-1.6-3.8c-1.3,0-1.6,1.3-1.6,3.8
		C486,88.2,486.3,89.5,487.6,89.5z"/>
	<path class="st8" d="M502.7,76.1h3.9l4.1,15.4h-3.3l-0.7-3.2h-4.2l-0.7,3.2h-3.3L502.7,76.1z M503.1,85.7h3.1l-1.5-6.9h0
		L503.1,85.7z"/>
	<path class="st8" d="M512.4,81.9h-1.5v-2h1.5v-1.3c0-2.1,1.2-2.8,3.1-2.8c0.6,0,1.1,0,1.6,0.1v2.1c-0.2,0-0.4,0-0.6,0
		c-0.8,0-1.1,0.3-1.1,0.9v1h1.8v2h-1.8v9.6h-3V81.9z"/>
	<path class="st8" d="M518.8,81.9h-1.5v-2h1.5v-1.3c0-2.1,1.2-2.8,3.2-2.8c0.5,0,1.1,0,1.6,0.1v2.1c-0.2,0-0.4,0-0.6,0
		c-0.9,0-1.2,0.3-1.2,0.9v1h1.8v2h-1.8v9.6h-3V81.9z M524.8,75.9h3v2.5h-3V75.9z M524.8,79.9h3v11.6h-3V79.9z"/>
	<path class="st8" d="M530.1,76.1h3v15.4h-3V76.1z"/>
	<path class="st8" d="M535.3,75.9h3v2.5h-3V75.9z M535.3,79.9h3v11.6h-3V79.9z"/>
	<path class="st8" d="M540.5,83.4v-0.3c0-2.7,1.9-3.6,4.1-3.6c3.6,0,4.3,1.5,4.3,3.6v6.1c0,1.1,0,1.6,0.4,2.2h-2.9
		c-0.2-0.4-0.3-0.8-0.4-1.2h0c-0.7,1.2-1.6,1.5-3,1.5c-2.1,0-2.8-1.8-2.8-3.3c0-2.2,0.9-3.1,3-3.6l1.7-0.5c0.9-0.2,1.2-0.6,1.2-1.4
		c0-0.9-0.4-1.4-1.4-1.4c-0.9,0-1.4,0.6-1.4,1.5v0.3H540.5z M546,85.7c-0.4,0.3-0.9,0.5-1.3,0.6c-1.2,0.3-1.7,0.8-1.7,1.9
		c0,0.9,0.3,1.6,1.2,1.6s1.9-0.5,1.9-1.8V85.7z"/>
	<path class="st8" d="M551.7,76.5h3v3.3h1.8v2h-1.8v6.3c0,0.9,0.2,1.3,1.1,1.3c0.3,0,0.5,0,0.7,0v2.1c-0.7,0.1-1.3,0.1-2,0.1
		c-2.4,0-2.8-0.7-2.8-3.1v-6.6h-1.5v-2h1.5V76.5z"/>
	<path class="st8" d="M560.1,86.1V87c0,1.4,0.4,2.7,1.5,2.7c1,0,1.4-0.8,1.6-2.2h2.7c-0.1,2.7-1.4,4.2-4.3,4.2
		c-4.4,0-4.5-3.3-4.5-6.2c0-3.1,0.6-6,4.7-6c3.5,0,4.3,2.3,4.3,5.9v0.7H560.1z M563.2,84.3c0-1.8-0.3-2.8-1.5-2.8
		c-1.2,0-1.6,1.2-1.6,2.3v0.5H563.2z"/>
	<path class="st8" d="M573.7,90.2L573.7,90.2c-0.7,1.1-1.5,1.5-2.7,1.5c-2.5,0-3.6-1.8-3.6-6.1c0-4.3,1.1-6.1,3.6-6.1
		c1.1,0,1.9,0.5,2.6,1.4h0v-4.9h3v15.4h-2.9V90.2z M572,89.5c1.3,0,1.6-1.3,1.6-3.8c0-2.5-0.3-3.8-1.6-3.8c-1.3,0-1.6,1.3-1.6,3.8
		C570.4,88.2,570.7,89.5,572,89.5z"/>
	<path class="st8" d="M584.5,76.5h3v3.3h1.7v2h-1.7v6.3c0,0.9,0.2,1.3,1.1,1.3c0.2,0,0.5,0,0.7,0v2.1c-0.6,0.1-1.3,0.1-2,0.1
		c-2.4,0-2.8-0.7-2.8-3.1v-6.6H583v-2h1.5V76.5z"/>
	<path class="st8" d="M594.6,79.5c3.7-0.1,4.7,2.1,4.7,6.1c0,4-1.2,6.1-4.7,6.1c-3.6,0.1-4.6-2.1-4.6-6.1
		C590,81.7,591.2,79.5,594.6,79.5z M594.6,89.7c1.3,0,1.6-1.2,1.6-4.1c0-2.9-0.4-4.1-1.6-4.1c-1.5,0-1.6,1.7-1.6,4.1
		C593,88,593.1,89.7,594.6,89.7z"/>
	<path class="st8" d="M609.3,76.1h3.9l4.2,15.4H614l-0.7-3.2h-4.2l-0.7,3.2h-3.3L609.3,76.1z M609.7,85.7h3.1l-1.5-6.9h0L609.7,85.7
		z"/>
	<path class="st8" d="M618.3,79.9h2.9v1.4h0.1c0.6-1.1,1.7-1.7,3-1.7c1.9,0,3,1,3,3.3v8.6h-3v-8c0-1.2-0.4-1.6-1.3-1.6
		c-1,0-1.6,0.6-1.6,1.9v7.7h-3V79.9z"/>
	<path class="st8" d="M629.3,79.9h2.9v1.4h0c0.6-1.1,1.8-1.7,3-1.7c1.9,0,3,1,3,3.3v8.6h-3v-8c0-1.2-0.4-1.6-1.3-1.6
		c-1,0-1.6,0.6-1.6,1.9v7.7h-3V79.9z"/>
	<path class="st8" d="M640.2,83.4v-0.3c0-2.7,1.9-3.6,4.1-3.6c3.6,0,4.3,1.5,4.3,3.6v6.1c0,1.1,0,1.6,0.4,2.2h-2.9
		c-0.2-0.4-0.3-0.8-0.4-1.2h0c-0.7,1.2-1.6,1.5-3,1.5c-2.1,0-2.9-1.8-2.9-3.3c0-2.2,0.9-3.1,3-3.6l1.7-0.5c0.9-0.2,1.2-0.6,1.2-1.4
		c0-0.9-0.4-1.4-1.4-1.4c-0.9,0-1.4,0.6-1.4,1.5v0.3H640.2z M645.8,85.7c-0.4,0.3-0.9,0.5-1.3,0.6c-1.2,0.3-1.7,0.8-1.7,1.9
		c0,0.9,0.3,1.6,1.1,1.6c0.8,0,1.9-0.5,1.9-1.8V85.7z"/>
	<path class="st8" d="M659.1,76.1v10.7c0,1.5,0.4,2.7,1.8,2.7c1.5,0,1.8-1.1,1.8-2.7V76.1h3.2v10.7c0,3.9-2.4,5-5,5s-5-0.8-5-5V76.1
		H659.1z"/>
	<path class="st8" d="M667.9,79.9h2.9v1.4h0c0.6-1.1,1.7-1.7,3-1.7c1.9,0,3,1,3,3.3v8.6h-3v-8c0-1.2-0.4-1.6-1.3-1.6
		c-1,0-1.6,0.6-1.6,1.9v7.7h-3V79.9z"/>
	<path class="st8" d="M678.9,75.9h3v2.5h-3V75.9z M678.9,79.9h3v11.6h-3V79.9z"/>
	<path class="st8" d="M689.7,79.9h3l-3,11.6h-3.5l-3.1-11.6h3.2l1.7,8.3h0L689.7,79.9z"/>
	<path class="st8" d="M696.4,86.1V87c0,1.4,0.4,2.7,1.5,2.7c1,0,1.4-0.8,1.6-2.2h2.7c-0.1,2.7-1.4,4.2-4.3,4.2
		c-4.4,0-4.6-3.3-4.6-6.2c0-3.1,0.6-6,4.7-6c3.5,0,4.3,2.3,4.3,5.9v0.7H696.4z M699.5,84.3c-0.1-1.8-0.3-2.8-1.5-2.8
		c-1.2,0-1.6,1.2-1.6,2.3v0.5H699.5z"/>
	<path class="st8" d="M704,79.9h2.9v1.6h0c0.6-1.1,1.5-1.9,2.7-1.9c0.2,0,0.4,0,0.5,0v2.9c-0.3,0-0.6,0-0.9,0
		c-1.1,0-2.2,0.5-2.2,2.1v7h-3V79.9z"/>
	<path class="st8" d="M713.5,87.7v0.4c0,1,0.6,1.7,1.6,1.7c0.9,0,1.5-0.5,1.5-1.4c0-0.8-0.5-1.1-1.1-1.3l-2.1-0.8
		c-1.7-0.6-2.5-1.6-2.5-3.2c0-1.9,1.2-3.5,4.3-3.5c2.7,0,4,1.2,4,3.3v0.5h-2.7c0-1.2-0.3-1.8-1.3-1.8c-0.8,0-1.4,0.4-1.4,1.3
		c0,0.6,0.3,1,1.3,1.4l1.8,0.6c1.9,0.6,2.6,1.6,2.6,3.3c0,2.4-1.8,3.6-4.4,3.6c-3.4,0-4.3-1.4-4.3-3.7v-0.4H713.5z"/>
	<path class="st8" d="M721.1,75.9h3v2.5h-3V75.9z M721.1,79.9h3v11.6h-3V79.9z"/>
	<path class="st8" d="M726.9,76.5h3v3.3h1.8v2h-1.8v6.3c0,0.9,0.2,1.3,1.1,1.3c0.3,0,0.5,0,0.7,0v2.1c-0.7,0.1-1.3,0.1-2,0.1
		c-2.4,0-2.8-0.7-2.8-3.1v-6.6h-1.5v-2h1.5V76.5z"/>
	<path class="st8" d="M732.7,93c0.3,0,0.5,0.1,0.8,0.1c1.1,0,1.5-0.6,1.6-1.6l-3.3-11.6h3.2l1.8,8h0l1.5-8h3l-2.9,10.8
		c-1.1,4-1.7,4.6-4.5,4.6h-1.2V93z"/>
	<path class="st8" d="M743.8,76.1c2.2,3.4,3.1,6.7,3.1,9.7c0,3-0.9,6.3-3.1,9.7h-2.3c1.8-3.3,2.5-6,2.5-9.7c0-3.6-0.7-6.4-2.5-9.7
		H743.8z"/>
</g>
</svg>
