<?xml version="1.0" standalone="no"?>
<!DOCTYPE svg PUBLIC "-//W3C//DTD SVG 20010904//EN"
 "http://www.w3.org/TR/2001/REC-SVG-20010904/DTD/svg10.dtd">
<svg version="1.0" xmlns="http://www.w3.org/2000/svg"
 width="170.000000pt" height="172.000000pt" viewBox="0 0 170.000000 172.000000"
 preserveAspectRatio="xMidYMid meet">

<g transform="translate(0.000000,172.000000) scale(0.100000,-0.100000)"
fill="#000000" stroke="none">
<path d="M195 1706 c-66 -29 -65 -17 -65 -518 0 -370 3 -465 16 -518 15 -67
69 -182 110 -235 13 -18 24 -36 24 -41 0 -6 -40 -27 -90 -48 -49 -21 -90 -39
-90 -41 0 -1 7 -19 15 -38 8 -20 15 -38 15 -40 0 -2 -21 -12 -47 -22 -69 -26
-71 -31 -19 -57 43 -21 47 -25 42 -50 -3 -16 -9 -41 -12 -57 l-6 -29 109 37
c60 21 130 43 157 50 53 13 52 10 30 95 -5 22 -2 27 22 37 16 6 34 7 40 2 123
-94 364 -233 404 -233 40 0 262 127 372 212 31 24 44 28 69 23 25 -6 30 -11
26 -28 -3 -12 -9 -39 -12 -59 l-7 -37 48 -12 c27 -7 97 -29 157 -50 l109 -37
-6 29 c-3 16 -9 41 -12 57 -5 25 -1 29 47 53 l52 25 -61 23 c-34 13 -62 25
-62 26 0 1 6 21 14 43 l14 40 -89 41 c-49 22 -89 44 -89 47 0 4 11 22 25 41
14 18 41 66 60 105 64 136 65 145 65 641 0 498 0 495 -65 523 -49 20 -1264 20
-1310 0z m699 -53 c-10 -21 -14 -72 -14 -210 l0 -183 300 0 c250 0 306 3 330
15 l30 16 0 -61 c0 -61 -6 -70 -28 -47 -10 9 -88 12 -320 12 l-307 0 -3 -347
-2 -348 -30 0 -30 0 -2 348 -3 347 -307 0 c-232 0 -310 -3 -320 -12 -22 -23
-28 -14 -28 47 l0 61 30 -16 c24 -12 80 -15 330 -15 l302 0 -4 193 c-2 146 -6
198 -17 210 -12 16 -8 17 47 17 l61 0 -15 -27z m-438 -74 l43 -20 41 21 c42
21 60 20 60 -6 0 -10 7 -13 25 -8 l25 6 0 -106 0 -106 -53 0 c-31 0 -61 -6
-75 -15 -19 -14 -24 -14 -51 0 -17 8 -53 15 -81 15 l-51 0 3 103 c3 97 4 102
24 99 15 -2 23 4 27 18 6 25 11 25 63 -1z m769 7 c39 -16 47 -45 15 -53 -28
-7 -25 -38 6 -62 32 -25 22 -43 -31 -61 -60 -20 -125 27 -125 90 0 30 19 33
32 6 6 -14 19 -26 29 -26 14 0 17 9 17 50 1 47 7 70 18 70 3 0 20 -7 39 -14z
m85 -52 c20 -58 -22 -135 -85 -159 -19 -7 -19 -7 3 -16 38 -15 24 -29 -28 -29
-38 0 -50 4 -50 15 0 9 10 15 23 16 14 0 9 5 -18 13 -22 6 -38 16 -35 21 3 6
9 8 15 6 6 -3 29 -5 53 -5 37 -1 48 4 73 32 35 39 39 96 9 134 -10 14 -16 28
-13 32 11 10 42 -24 53 -60z m-153 6 l-2 -49 -26 27 -25 27 20 23 c29 32 34
28 33 -28z m119 -68 c-3 -3 -15 3 -26 13 l-21 19 23 18 c23 17 23 17 26 -13 2
-17 1 -33 -2 -37z m-64 -447 c-3 -30 1 -54 12 -70 20 -31 36 -32 36 -2 1 21 1
22 15 3 20 -26 19 -65 -2 -88 -23 -25 -37 -23 -19 4 20 29 20 38 -1 38 -20 0
-53 28 -53 47 0 7 -5 13 -11 13 -8 0 -10 -14 -6 -42 5 -39 4 -41 -9 -24 -14
19 -14 19 -14 -3 0 -12 -4 -19 -10 -16 -14 9 -13 -8 2 -23 7 -7 8 -12 2 -12
-17 0 -34 23 -34 45 0 38 25 92 39 87 10 -3 12 1 8 17 -3 11 -1 18 4 15 5 -3
12 3 16 13 5 15 23 43 27 43 1 0 0 -20 -2 -45z m-680 8 c22 -20 23 -52 3 -79
-22 -29 -18 -34 21 -34 28 0 35 -3 32 -17 -3 -14 -12 -17 -36 -15 l-32 3 0
-90 c0 -89 1 -91 24 -91 24 0 81 38 71 48 -6 6 34 52 46 52 4 0 9 -12 11 -27
4 -37 -51 -97 -111 -120 -25 -9 -51 -24 -58 -33 -11 -13 -12 -13 -13 3 0 10
-8 17 -20 17 -32 0 -71 24 -113 69 -33 36 -37 46 -32 72 l7 31 24 -23 c13 -12
23 -24 22 -28 -3 -29 16 -45 73 -61 l29 -9 0 95 0 96 -37 -4 c-29 -2 -38 1
-41 15 -3 14 4 17 37 17 46 0 51 8 21 35 -26 24 -25 60 2 79 29 20 47 20 70
-1z m733 -235 c-3 -24 -11 -71 -17 -105 l-10 -63 -37 0 -38 0 -16 93 c-10 51
-17 99 -17 105 0 8 23 12 71 12 l71 0 -7 -42z m-491 -354 c3 -9 6 -28 7 -42 0
-23 3 -21 16 16 17 50 40 54 55 11 6 -16 13 -27 17 -24 6 7 7 12 10 40 1 19
52 20 69 3 10 -10 14 -10 21 0 8 14 71 6 71 -9 0 -5 -4 -9 -9 -9 -4 0 -6 -12
-3 -27 4 -21 2 -25 -11 -20 -9 3 -19 2 -22 -3 -4 -6 3 -10 14 -10 13 0 21 -7
21 -16 0 -14 -8 -16 -47 -10 -25 3 -55 14 -65 23 -17 15 -18 15 -18 0 0 -20
-31 -22 -61 -4 -17 10 -23 10 -26 0 -8 -21 -51 -15 -58 7 -9 28 -25 25 -25 -5
0 -14 -4 -25 -10 -25 -5 0 -10 5 -10 10 0 6 -11 3 -24 -5 -31 -21 -70 -5 -61
25 3 10 2 21 -4 24 -15 9 -1 45 21 51 10 4 25 2 32 -4 9 -7 16 -7 25 2 10 9
14 8 22 -5 10 -18 30 -25 28 -10 -5 32 14 44 25 16z m-278 -50 c-5 -20 -1 -33
15 -50 18 -19 20 -27 10 -37 -10 -9 -16 -7 -32 13 l-20 25 3 -23 c3 -21 -5
-26 -84 -52 -55 -17 -88 -24 -88 -17 0 6 -7 1 -16 -11 -16 -24 -43 -29 -61
-11 -6 6 -9 17 -7 24 3 7 1 16 -5 20 -16 9 -13 41 5 56 12 10 20 10 35 1 16
-10 19 -9 19 3 0 14 37 35 61 35 16 0 9 -28 -8 -33 -14 -4 -12 -5 5 -6 26 -1
30 -26 6 -35 -23 -9 -10 -19 14 -12 17 6 18 11 9 46 -13 45 -11 48 31 56 38 8
44 -11 10 -26 l-23 -10 24 3 c30 3 41 -22 12 -30 -12 -3 -21 -10 -21 -15 0 -6
7 -7 16 -4 9 3 22 6 30 6 10 0 11 6 4 26 -15 40 -13 67 6 60 8 -3 22 1 30 9
22 22 27 19 20 -11z m720 11 c4 -10 11 -12 18 -7 7 6 44 -2 96 -18 70 -22 86
-31 88 -49 3 -22 4 -22 23 -5 17 16 22 16 29 4 6 -8 10 -12 10 -8 0 14 60 -14
60 -28 0 -8 -4 -14 -10 -14 -5 0 -9 -3 -9 -7 3 -20 -2 -34 -10 -28 -5 3 -12 1
-16 -5 -3 -5 -1 -10 4 -10 6 0 11 -7 11 -16 0 -11 -5 -14 -17 -9 -10 4 -26 10
-35 12 -21 6 -22 12 -7 50 l10 28 -30 -29 c-35 -34 -51 -27 -51 20 0 21 -4 33
-10 29 -6 -3 -7 -17 -4 -31 8 -31 -22 -34 -32 -2 -6 20 -8 20 -18 5 -11 -14
-18 -14 -55 -3 -23 7 -45 16 -49 22 -4 5 -20 9 -37 9 -24 0 -31 5 -33 24 -3
18 0 22 12 18 13 -5 14 -3 4 12 -6 10 -8 26 -5 35 8 20 56 21 63 1z m-636 -25
c0 -22 -7 -25 -29 -11 -16 10 -6 31 15 31 8 0 14 -9 14 -20z m526 9 c10 -17
-13 -36 -27 -22 -12 12 -4 33 11 33 5 0 12 -5 16 -11z m-224 -196 c2 -65 6
-125 8 -133 4 -12 -5 -15 -40 -15 -35 0 -44 3 -40 15 2 8 6 68 8 133 l4 117
28 0 28 0 4 -117z"/>
<path d="M410 1495 c0 -77 2 -85 19 -85 11 0 26 -3 35 -6 14 -5 16 5 16 70 0
74 -1 76 -30 91 -16 8 -31 15 -35 15 -3 0 -5 -38 -5 -85z"/>
<path d="M543 1564 c-33 -16 -33 -17 -33 -91 0 -64 2 -74 16 -69 9 3 27 6 40
6 23 0 24 2 24 85 0 47 -3 85 -7 85 -5 0 -23 -8 -40 -16z"/>
<path d="M360 1465 l0 -85 35 0 c20 0 50 -6 68 -13 26 -11 37 -11 62 -1 17 7
47 13 68 14 l37 0 0 85 c0 71 -2 83 -15 79 -11 -5 -15 -23 -15 -79 l0 -73 -42
-6 c-58 -8 -66 -8 -120 0 l-48 7 0 72 c0 56 -4 74 -15 79 -13 4 -15 -8 -15
-79z"/>
<path d="M474 1006 c-8 -21 3 -36 27 -36 15 0 20 6 17 22 -4 27 -35 37 -44 14z"/>
<path d="M685 411 c-3 -5 -1 -12 5 -16 5 -3 10 1 10 9 0 18 -6 21 -15 7z"/>
<path d="M951 384 c0 -11 3 -14 6 -6 3 7 2 16 -1 19 -3 4 -6 -2 -5 -13z"/>
<path d="M1215 369 c-4 -6 -5 -12 -2 -15 2 -3 7 2 10 11 7 17 1 20 -8 4z"/>
<path d="M1300 373 c0 -6 -10 -9 -22 -6 -20 4 -21 3 -5 -7 23 -15 21 -28 -5
-32 l-23 -3 22 -13 c20 -11 23 -10 32 25 6 20 8 39 6 42 -3 2 -5 0 -5 -6z"/>
</g>
</svg>
